0
SECTION
2
HEADER
9
$ACADVER
1
AC1015
9
$INSBASE
10
0.0000000000000000
20
0.0000000000000000
30
0.0000000000000000
9
$INSUNITS
70
0
9
$LUNITS
70
2
9
$EXTMIN
10
0.0000000000000000
20
0.0000000000000000
30
0.0000000000000000
9
$EXTMAX
10
0.0000000000000000
20
0.0000000000000000
30
0.0000000000000000
9
$LTSCALE
40
100.0000000000000000
9
$HANDSEED
5
43
0
ENDSEC
0
SECTION
2
CLASSES
0
ENDSEC
0
SECTION
2
TABLES
0
TABLE
2
VPORT
5
1
100
AcDbSymbolTable
70
0
0
ENDTAB
0
TABLE
2
LTYPE
5
2
100
AcDbSymbolTable
70
5
0
LTYPE
5
3
330
2
100
AcDbSymbolTableRecord
100
AcDbLinetypeTableRecord
2
ByLayer
70
0
3

72
65
73
0
40
0.0000000000000000
0
LTYPE
5
4
330
2
100
AcDbSymbolTableRecord
100
AcDbLinetypeTableRecord
2
ByBlock
70
0
3

72
65
73
0
40
0.0000000000000000
0
LTYPE
5
5
330
2
100
AcDbSymbolTableRecord
100
AcDbLinetypeTableRecord
2
Continuous
70
0
3
Solid Line
72
65
73
0
40
0.0000000000000000
0
LTYPE
5
6
330
2
100
AcDbSymbolTableRecord
100
AcDbLinetypeTableRecord
2
HIDDEN
70
0
3
Hidden __ __ __ __ __ __ __ __ __ __ __ __ __ _
72
65
73
2
40
0.3750000000000000
49
0.2500000000000000
74
0
49
-0.1250000000000000
74
0
0
LTYPE
5
7
330
2
100
AcDbSymbolTableRecord
100
AcDbLinetypeTableRecord
2
DASHDOT
70
0
3
Dash dot __ . __ . __ . __ . __ . __ . __ . __
72
65
73
4
40
1.0000000000000000
49
0.5000000000000000
74
0
49
-0.2500000000000000
74
0
49
0.0000000000000000
74
0
49
-0.2500000000000000
74
0
0
ENDTAB
0
TABLE
2
LAYER
5
8
100
AcDbSymbolTable
70
3
0
LAYER
5
9
330
8
100
AcDbSymbolTableRecord
100
AcDbLayerTableRecord
2
0
70
0
62
7
6
Continuous
370
-3
390
41
0
LAYER
5
A
330
8
100
AcDbSymbolTableRecord
100
AcDbLayerTableRecord
2
Toroidal
70
0
62
7
6
Continuous
370
-3
390
41
0
LAYER
5
B
330
8
100
AcDbSymbolTableRecord
100
AcDbLayerTableRecord
2
Poloidal
70
0
62
1
6
HIDDEN
370
-3
390
41
0
ENDTAB
0
TABLE
2
STYLE
5
C
100
AcDbSymbolTable
70
1
0
STYLE
5
D
330
C
100
AcDbSymbolTableRecord
100
AcDbTextStyleTableRecord
2
Standard
70
0
40
0.0000000000000000
41
1.0000000000000000
50
0.0000000000000000
71
0
42
100.0000000000000000
3
arial.ttf
4

0
ENDTAB
0
TABLE
2
VIEW
5
E
100
AcDbSymbolTable
70
0
0
ENDTAB
0
TABLE
2
UCS
5
F
100
AcDbSymbolTable
70
0
0
ENDTAB
0
TABLE
2
APPID
5
10
100
AcDbSymbolTable
70
1
0
APPID
5
11
330
10
100
AcDbSymbolTableRecord
100
AcDbRegAppTableRecord
2
ACAD
70
0
0
ENDTAB
0
TABLE
2
DIMSTYLE
5
12
100
AcDbSymbolTable
70
0
100
AcDbDimStyleTable
71
0
0
ENDTAB
0
TABLE
2
BLOCK_RECORD
5
13
100
AcDbSymbolTable
70
3
0
BLOCK_RECORD
5
14
330
13
100
AcDbSymbolTableRecord
100
AcDbBlockTableRecord
2
*Model_Space
70
0
280
1
281
0
0
BLOCK_RECORD
5
15
330
13
100
AcDbSymbolTableRecord
100
AcDbBlockTableRecord
2
*Paper_Space
70
0
280
1
281
0
0
BLOCK_RECORD
5
16
330
13
100
AcDbSymbolTableRecord
100
AcDbBlockTableRecord
2
*Paper_Space0
70
0
280
1
281
0
0
ENDTAB
0
ENDSEC
0
SECTION
2
BLOCKS
0
BLOCK
5
17
100
AcDbEntity
8
0
100
AcDbBlockBegin
2
*Model_Space
70
0
10
0.0000000000000000
20
0.0000000000000000
30
0.0000000000000000
3
*Model_Space
1

0
ENDBLK
5
18
100
AcDbEntity
8
0
100
AcDbBlockEnd
0
BLOCK
5
19
100
AcDbEntity
8
0
100
AcDbBlockBegin
2
*Paper_Space
70
0
10
0.0000000000000000
20
0.0000000000000000
30
0.0000000000000000
3
*Paper_Space
1

0
ENDBLK
5
1A
100
AcDbEntity
8
0
100
AcDbBlockEnd
0
BLOCK
5
1B
100
AcDbEntity
8
0
100
AcDbBlockBegin
2
*Paper_Space0
70
0
10
0.0000000000000000
20
0.0000000000000000
30
0.0000000000000000
3
*Paper_Space0
1

0
ENDBLK
5
1C
100
AcDbEntity
8
0
100
AcDbBlockEnd
0
ENDSEC
0
SECTION
2
ENTITIES
0
CIRCLE
5
1D
100
AcDbEntity
8
Toroidal
100
AcDbCircle
10
0.0000000000000000
20
0.0000000000000000
30
200.0000000000000000
40
500.0000000000000000
210
0.0000000000000000
220
0.0000000000000000
230
1.0000000000000000
0
CIRCLE
5
1E
100
AcDbEntity
8
Poloidal
100
AcDbCircle
10
-500.0000000000000000
20
0.0000000000000000
30
0.0000000000000000
40
200.0000000000000000
210
-0.0000000000000000
220
1.0000000000000000
230
0.0000000000000000
0
CIRCLE
5
1F
100
AcDbEntity
8
Toroidal
100
AcDbCircle
10
0.0000000000000000
20
0.0000000000000000
30
184.7759065022573566
40
423.4633135269820627
210
0.0000000000000000
220
0.0000000000000000
230
1.0000000000000000
0
CIRCLE
5
20
100
AcDbEntity
8
Poloidal
100
AcDbCircle
10
-499.9999999999999432
20
0.0000000000000000
30
0.0000000000000000
40
200.0000000000000000
210
-0.3826834323650898
220
0.9238795325112867
230
0.0000000000000000
0
CIRCLE
5
21
100
AcDbEntity
8
Toroidal
100
AcDbCircle
10
0.0000000000000000
20
0.0000000000000000
30
141.4213562373095101
40
358.5786437626904899
210
0.0000000000000000
220
0.0000000000000000
230
1.0000000000000000
0
CIRCLE
5
22
100
AcDbEntity
8
Poloidal
100
AcDbCircle
10
-500.0000000000000000
20
0.0000000000000000
30
0.0000000000000000
40
200.0000000000000000
210
-0.7071067811865475
220
0.7071067811865476
230
0.0000000000000000
0
CIRCLE
5
23
100
AcDbEntity
8
Toroidal
100
AcDbCircle
10
0.0000000000000000
20
0.0000000000000000
30
76.5366864730179657
40
315.2240934977426150
210
0.0000000000000000
220
0.0000000000000000
230
1.0000000000000000
0
CIRCLE
5
24
100
AcDbEntity
8
Poloidal
100
AcDbCircle
10
-500.0000000000000000
20
0.0000000000000000
30
-0.0000000000000284
40
200.0000000000000000
210
-0.9238795325112867
220
0.3826834323650898
230
0.0000000000000000
0
CIRCLE
5
25
100
AcDbEntity
8
Toroidal
100
AcDbCircle
10
0.0000000000000000
20
0.0000000000000000
30
0.0000000000000122
40
300.0000000000000000
210
0.0000000000000000
220
0.0000000000000000
230
1.0000000000000000
0
CIRCLE
5
26
100
AcDbEntity
8
Poloidal
100
AcDbCircle
10
-500.0000000000000000
20
0.0000000000000000
30
0.0000000000000000
40
200.0000000000000000
210
-1.0000000000000000
220
0.0000000000000001
230
0.0000000000000000
0
CIRCLE
5
27
100
AcDbEntity
8
Toroidal
100
AcDbCircle
10
0.0000000000000000
20
0.0000000000000000
30
-76.5366864730179515
40
315.2240934977426150
210
0.0000000000000000
220
0.0000000000000000
230
1.0000000000000000
0
CIRCLE
5
28
100
AcDbEntity
8
Poloidal
100
AcDbCircle
10
-499.9999999999999432
20
0.0000000000000000
30
0.0000000000000000
40
200.0000000000000000
210
-0.9238795325112867
220
-0.3826834323650897
230
0.0000000000000000
0
CIRCLE
5
29
100
AcDbEntity
8
Toroidal
100
AcDbCircle
10
0.0000000000000000
20
0.0000000000000000
30
-141.4213562373094817
40
358.5786437626904899
210
0.0000000000000000
220
0.0000000000000000
230
1.0000000000000000
0
CIRCLE
5
2A
100
AcDbEntity
8
Poloidal
100
AcDbCircle
10
-500.0000000000000000
20
0.0000000000000000
30
0.0000000000000000
40
200.0000000000000000
210
-0.7071067811865476
220
-0.7071067811865475
230
0.0000000000000000
0
CIRCLE
5
2B
100
AcDbEntity
8
Toroidal
100
AcDbCircle
10
0.0000000000000000
20
0.0000000000000000
30
-184.7759065022573566
40
423.4633135269820059
210
0.0000000000000000
220
0.0000000000000000
230
1.0000000000000000
0
CIRCLE
5
2C
100
AcDbEntity
8
Poloidal
100
AcDbCircle
10
-500.0000000000000000
20
0.0000000000000000
30
-0.0000000000000284
40
200.0000000000000000
210
-0.3826834323650898
220
-0.9238795325112867
230
0.0000000000000000
0
CIRCLE
5
2D
100
AcDbEntity
8
Toroidal
100
AcDbCircle
10
0.0000000000000000
20
0.0000000000000000
30
-200.0000000000000000
40
500.0000000000000000
210
0.0000000000000000
220
0.0000000000000000
230
1.0000000000000000
0
CIRCLE
5
2E
100
AcDbEntity
8
Poloidal
100
AcDbCircle
10
-500.0000000000000000
20
0.0000000000000000
30
0.0000000000000000
40
200.0000000000000000
210
-0.0000000000000001
220
-1.0000000000000000
230
0.0000000000000000
0
CIRCLE
5
2F
100
AcDbEntity
8
Toroidal
100
AcDbCircle
10
0.0000000000000000
20
0.0000000000000000
30
-184.7759065022573566
40
576.5366864730178804
210
0.0000000000000000
220
0.0000000000000000
230
1.0000000000000000
0
CIRCLE
5
30
100
AcDbEntity
8
Poloidal
100
AcDbCircle
10
-500.0000000000000000
20
0.0000000000000000
30
0.0000000000000000
40
200.0000000000000000
210
0.3826834323650897
220
-0.9238795325112868
230
0.0000000000000000
0
CIRCLE
5
31
100
AcDbEntity
8
Toroidal
100
AcDbCircle
10
0.0000000000000000
20
0.0000000000000000
30
-141.4213562373095385
40
641.4213562373095101
210
0.0000000000000000
220
0.0000000000000000
230
1.0000000000000000
0
CIRCLE
5
32
100
AcDbEntity
8
Poloidal
100
AcDbCircle
10
-500.0000000000000568
20
0.0000000000000000
30
0.0000000000000000
40
200.0000000000000000
210
0.7071067811865475
220
-0.7071067811865477
230
0.0000000000000000
0
CIRCLE
5
33
100
AcDbEntity
8
Toroidal
100
AcDbCircle
10
0.0000000000000000
20
0.0000000000000000
30
-76.5366864730180652
40
684.7759065022572713
210
0.0000000000000000
220
0.0000000000000000
230
1.0000000000000000
0
CIRCLE
5
34
100
AcDbEntity
8
Poloidal
100
AcDbCircle
10
-500.0000000000000000
20
0.0000000000000000
30
0.0000000000000000
40
200.0000000000000000
210
0.9238795325112865
220
-0.3826834323650903
230
0.0000000000000000
0
CIRCLE
5
35
100
AcDbEntity
8
Toroidal
100
AcDbCircle
10
0.0000000000000000
20
0.0000000000000000
30
-0.0000000000000367
40
700.0000000000000000
210
0.0000000000000000
220
0.0000000000000000
230
1.0000000000000000
0
CIRCLE
5
36
100
AcDbEntity
8
Poloidal
100
AcDbCircle
10
-500.0000000000000000
20
0.0000000000000000
30
0.0000000000000000
40
200.0000000000000000
210
1.0000000000000000
220
-0.0000000000000002
230
0.0000000000000000
0
CIRCLE
5
37
100
AcDbEntity
8
Toroidal
100
AcDbCircle
10
0.0000000000000000
20
0.0000000000000000
30
76.5366864730179941
40
684.7759065022573850
210
0.0000000000000000
220
0.0000000000000000
230
1.0000000000000000
0
CIRCLE
5
38
100
AcDbEntity
8
Poloidal
100
AcDbCircle
10
-500.0000000000000000
20
0.0000000000000000
30
0.0000000000000284
40
200.0000000000000000
210
0.9238795325112866
220
0.3826834323650900
230
0.0000000000000000
0
CIRCLE
5
39
100
AcDbEntity
8
Toroidal
100
AcDbCircle
10
0.0000000000000000
20
0.0000000000000000
30
141.4213562373095954
40
641.4213562373093964
210
0.0000000000000000
220
0.0000000000000000
230
1.0000000000000000
0
CIRCLE
5
3A
100
AcDbEntity
8
Poloidal
100
AcDbCircle
10
-500.0000000000000000
20
0.0000000000000000
30
0.0000000000000284
40
200.0000000000000000
210
0.7071067811865470
220
0.7071067811865480
230
0.0000000000000000
0
CIRCLE
5
3B
100
AcDbEntity
8
Toroidal
100
AcDbCircle
10
0.0000000000000000
20
0.0000000000000000
30
184.7759065022574418
40
576.5366864730177667
210
0.0000000000000000
220
0.0000000000000000
230
1.0000000000000000
0
CIRCLE
5
3C
100
AcDbEntity
8
Poloidal
100
AcDbCircle
10
-500.0000000000000000
20
0.0000000000000000
30
-0.0000000000000284
40
200.0000000000000000
210
0.3826834323650887
220
0.9238795325112872
230
0.0000000000000000
0
ENDSEC
0
SECTION
2
OBJECTS
0
DICTIONARY
5
3D
100
AcDbDictionary
281
1
3
ACAD_GROUP
350
42
3
ACAD_PLOTSTYLENAME
350
40
0
ACDBDICTIONARYWDFLT
5
40
102
{ACAD_REACTORS
330
3D
102
}
330
3D
100
AcDbDictionary
281
1
3
Normal
350
41
100
AcDbDictionaryWithDefault
340
41
0
ACDBPLACEHOLDER
5
41
102
{ACAD_REACTORS
330
40
102
}
330
40
0
DICTIONARY
5
42
100
AcDbDictionary
281
1
0
ENDSEC
0
EOF
